<svg width="266" height="222" viewBox="0 0 266 222" fill="none" xmlns="http://www.w3.org/2000/svg">
<rect width="265.409" height="221.695" fill="#0024B1"/>
<path d="M78.7297 142.208C79.2897 142.192 79.6897 142.064 79.9297 141.824C80.1697 141.584 80.3057 141.296 80.3377 140.96C80.3697 140.608 80.3857 140 80.3857 139.136V129.056C80.3857 128.192 80.4097 127.56 80.4577 127.16L78.7297 127.256V126.2C81.0657 126.168 82.8737 126.152 84.1537 126.152C86.0417 126.152 87.4897 126.488 88.4977 127.16C89.5217 127.816 90.0337 128.816 90.0337 130.16C90.0337 131.024 89.6897 131.824 89.0017 132.56C88.3297 133.28 87.3537 133.752 86.0737 133.976V134.024C87.7857 134.024 89.0977 134.416 90.0097 135.2C90.9377 135.984 91.4017 137.016 91.4017 138.296C91.4017 139.256 91.1537 140.096 90.6577 140.816C90.1777 141.52 89.5057 142.064 88.6417 142.448C87.7937 142.816 86.8257 143 85.7377 143H78.7297V142.208ZM84.2257 133.76C85.4897 133.744 86.4097 133.4 86.9857 132.728C87.5617 132.04 87.8497 131.2 87.8497 130.208C87.8497 129.008 87.4977 128.176 86.7937 127.712C86.1057 127.248 85.2657 127.016 84.2737 127.016C83.7617 127.016 83.3777 127.088 83.1217 127.232C82.8657 127.376 82.6897 127.608 82.5937 127.928C82.5137 128.248 82.4737 128.72 82.4737 129.344V133.808L84.2257 133.76ZM84.9457 142.088C86.2097 142.088 87.2097 141.776 87.9457 141.152C88.6977 140.512 89.0737 139.608 89.0737 138.44C89.0737 137.08 88.6897 136.112 87.9217 135.536C87.1697 134.96 86.1777 134.672 84.9457 134.672C84.0657 134.672 83.2417 134.696 82.4737 134.744V140.168C82.4737 141 82.4497 141.624 82.4017 142.04C82.7057 142.072 83.2817 142.088 84.1297 142.088H84.9457ZM99.3474 143.384C98.2434 143.384 97.2274 143.128 96.2994 142.616C95.3874 142.088 94.6594 141.36 94.1154 140.432C93.5874 139.504 93.3234 138.456 93.3234 137.288C93.3234 136.04 93.5874 134.912 94.1154 133.904C94.6434 132.88 95.3634 132.08 96.2754 131.504C97.2034 130.912 98.2274 130.616 99.3474 130.616C100.451 130.616 101.467 130.888 102.395 131.432C103.323 131.96 104.051 132.688 104.579 133.616C105.123 134.544 105.395 135.576 105.395 136.712C105.395 137.928 105.123 139.048 104.579 140.072C104.051 141.096 103.323 141.904 102.395 142.496C101.483 143.088 100.467 143.384 99.3474 143.384ZM99.5394 142.424C100.707 142.424 101.563 141.944 102.107 140.984C102.667 140.024 102.947 138.832 102.947 137.408C102.947 135.792 102.643 134.408 102.035 133.256C101.443 132.104 100.547 131.528 99.3474 131.528C98.1634 131.528 97.2674 132.016 96.6594 132.992C96.0674 133.968 95.7714 135.168 95.7714 136.592C95.7714 137.616 95.9074 138.576 96.1794 139.472C96.4674 140.352 96.8914 141.064 97.4514 141.608C98.0274 142.152 98.7234 142.424 99.5394 142.424ZM113.386 143.384C112.282 143.384 111.266 143.128 110.338 142.616C109.426 142.088 108.698 141.36 108.154 140.432C107.626 139.504 107.362 138.456 107.362 137.288C107.362 136.04 107.626 134.912 108.154 133.904C108.682 132.88 109.402 132.08 110.314 131.504C111.242 130.912 112.266 130.616 113.386 130.616C114.49 130.616 115.506 130.888 116.434 131.432C117.362 131.96 118.09 132.688 118.618 133.616C119.162 134.544 119.434 135.576 119.434 136.712C119.434 137.928 119.162 139.048 118.618 140.072C118.09 141.096 117.362 141.904 116.434 142.496C115.522 143.088 114.506 143.384 113.386 143.384ZM113.578 142.424C114.746 142.424 115.602 141.944 116.146 140.984C116.706 140.024 116.986 138.832 116.986 137.408C116.986 135.792 116.682 134.408 116.074 133.256C115.482 132.104 114.586 131.528 113.386 131.528C112.202 131.528 111.306 132.016 110.698 132.992C110.106 133.968 109.81 135.168 109.81 136.592C109.81 137.616 109.946 138.576 110.218 139.472C110.506 140.352 110.93 141.064 111.49 141.608C112.066 142.152 112.762 142.424 113.578 142.424ZM121.257 142.28C121.721 142.28 122.049 142.168 122.241 141.944C122.449 141.704 122.569 141.408 122.601 141.056C122.633 140.704 122.649 140.136 122.649 139.352C122.649 139.192 122.649 138.32 122.649 136.736C122.665 135.152 122.673 132.24 122.673 128C122.673 127.392 122.697 126.872 122.745 126.44L121.041 126.536V125.528C121.985 125.528 122.657 125.472 123.057 125.36C123.473 125.248 123.793 125.088 124.017 124.88H124.713V136.232H125.673L128.601 133.16C129.209 132.52 129.681 132.096 130.017 131.888L128.385 131.96V131H132.753V131.72C132.049 131.8 131.409 132.056 130.833 132.488C130.257 132.92 129.617 133.504 128.913 134.24L127.041 136.208C127.329 136.336 127.577 136.504 127.785 136.712C128.009 136.904 128.257 137.168 128.529 137.504L130.233 139.688C130.265 139.72 130.441 139.968 130.761 140.432C131.097 140.88 131.489 141.304 131.937 141.704C132.401 142.088 132.801 142.28 133.137 142.28V143H130.953C130.569 143 130.209 142.832 129.873 142.496C129.537 142.16 129.049 141.576 128.409 140.744L127.473 139.424C127.121 138.928 126.785 138.472 126.465 138.056C126.161 137.624 125.905 137.312 125.697 137.12L124.713 137.168V140.456C124.713 141.176 124.681 141.72 124.617 142.088L126.153 142.016V143H121.257V142.28ZM140.669 142.28C141.133 142.28 141.461 142.168 141.653 141.944C141.861 141.704 141.981 141.416 142.013 141.08C142.045 140.728 142.069 140.152 142.085 139.352L142.109 133.88C142.109 133.208 142.141 132.688 142.205 132.32L140.501 132.416V131.408C141.445 131.408 142.093 131.36 142.445 131.264C142.797 131.152 143.093 130.984 143.333 130.76H144.029C144.061 131.064 144.093 131.552 144.125 132.224C144.669 131.744 145.285 131.36 145.973 131.072C146.677 130.768 147.365 130.616 148.037 130.616C149.429 130.616 150.445 131.056 151.085 131.936C151.725 132.8 152.045 134.152 152.045 135.992V140.456C152.045 141.176 152.013 141.72 151.949 142.088L153.461 142.016V143H148.565V142.28C149.029 142.28 149.357 142.168 149.549 141.944C149.757 141.704 149.877 141.408 149.909 141.056C149.957 140.688 149.981 140.12 149.981 139.352V135.992C149.965 134.616 149.741 133.584 149.309 132.896C148.877 132.192 148.197 131.84 147.269 131.84C146.693 131.84 146.117 131.984 145.541 132.272C144.981 132.56 144.517 132.936 144.149 133.4C144.165 133.576 144.173 133.888 144.173 134.336L144.149 140.456C144.149 141.176 144.117 141.72 144.053 142.088L145.565 142.016V143H140.669V142.28ZM161.199 143.384C160.095 143.384 159.079 143.128 158.151 142.616C157.239 142.088 156.511 141.36 155.967 140.432C155.439 139.504 155.175 138.456 155.175 137.288C155.175 136.04 155.439 134.912 155.967 133.904C156.495 132.88 157.215 132.08 158.127 131.504C159.055 130.912 160.079 130.616 161.199 130.616C162.303 130.616 163.319 130.888 164.247 131.432C165.175 131.96 165.903 132.688 166.431 133.616C166.975 134.544 167.247 135.576 167.247 136.712C167.247 137.928 166.975 139.048 166.431 140.072C165.903 141.096 165.175 141.904 164.247 142.496C163.335 143.088 162.319 143.384 161.199 143.384ZM161.391 142.424C162.559 142.424 163.415 141.944 163.959 140.984C164.519 140.024 164.799 138.832 164.799 137.408C164.799 135.792 164.495 134.408 163.887 133.256C163.295 132.104 162.399 131.528 161.199 131.528C160.015 131.528 159.119 132.016 158.511 132.992C157.919 133.968 157.623 135.168 157.623 136.592C157.623 137.616 157.759 138.576 158.031 139.472C158.319 140.352 158.743 141.064 159.303 141.608C159.879 142.152 160.575 142.424 161.391 142.424ZM170.036 133.856C169.732 132.992 169.524 132.344 169.412 131.912L168.14 131.984V131H173.228V131.72C172.412 131.736 172.004 132.104 172.004 132.824C172.004 133.192 172.108 133.688 172.316 134.312L174.188 140L174.908 137.864C175.9 134.952 176.668 132.664 177.212 131H178.196L181.388 140.168L183.692 133.52C183.964 132.704 184.204 132.168 184.412 131.912L183.02 131.984V131H187.196V131.72C186.668 131.752 186.252 131.848 185.948 132.008C185.644 132.152 185.412 132.352 185.252 132.608C185.092 132.848 184.932 133.184 184.772 133.616L181.316 143.072H180.356L177.212 134L174.092 143.072H173.18L170.036 133.856Z" fill="white"/>
<path d="M156.754 75.5517H110.41" stroke="white" stroke-width="2" stroke-miterlimit="10"/>
<path d="M131.099 102.862H114.548C113.45 102.862 112.398 102.426 111.622 101.65C110.846 100.874 110.41 99.8216 110.41 98.7241V68.1034C110.41 67.006 110.846 65.9535 111.622 65.1775C112.398 64.4015 113.45 63.9655 114.548 63.9655H152.617C153.714 63.9655 154.767 64.4015 155.543 65.1775C156.319 65.9535 156.754 67.006 156.754 68.1034V84.6552" stroke="white" stroke-width="2" stroke-miterlimit="10" stroke-linecap="square"/>
<path d="M121.168 59V68.931" stroke="white" stroke-width="2" stroke-miterlimit="10" stroke-linecap="square"/>
<path d="M145.996 59V68.931" stroke="white" stroke-width="2" stroke-miterlimit="10" stroke-linecap="square"/>
<path d="M145.996 107C151.481 107 155.927 102.554 155.927 97.069C155.927 91.5842 151.481 87.1379 145.996 87.1379C140.511 87.1379 136.065 91.5842 136.065 97.069C136.065 102.554 140.511 107 145.996 107Z" stroke="white" stroke-width="2" stroke-miterlimit="10" stroke-linecap="square"/>
<path d="M141.858 97.8965L144.341 100.379L150.134 94.5862" stroke="white" stroke-width="2" stroke-miterlimit="10" stroke-linecap="square"/>
</svg>
