<svg width="16" height="16" viewBox="0 0 16 16" fill="none" xmlns="http://www.w3.org/2000/svg">
<circle r="7.20866" transform="matrix(-1 0 0 1 8.23616 7.70866)" stroke="white"/>
<path fill-rule="evenodd" clip-rule="evenodd" d="M10.5271 5.83814C10.5271 6.07038 10.3388 6.25861 10.1066 6.25861C9.87444 6.25861 9.68616 6.07038 9.68616 5.83814C9.68616 5.60589 9.87444 5.41766 10.1066 5.41766C10.3389 5.41766 10.5271 5.60589 10.5271 5.83814ZM8.23624 8.87649C7.59118 8.87649 7.06828 8.35358 7.06828 7.70853C7.06828 7.06347 7.59118 6.54057 8.23624 6.54057C8.88129 6.54057 9.4042 7.06347 9.4042 7.70853C9.4042 8.35358 8.88129 8.87649 8.23624 8.87649ZM8.23624 5.9092C7.24249 5.9092 6.43691 6.71478 6.43691 7.70853C6.43691 8.70228 7.24249 9.50785 8.23624 9.50785C9.22999 9.50785 10.0356 8.70228 10.0356 7.70853C10.0356 6.71478 9.22999 5.9092 8.23624 5.9092ZM8.23624 4.83596C9.17184 4.83596 9.28265 4.83951 9.6521 4.85638C9.99373 4.87198 10.1793 4.92903 10.3027 4.97704C10.4663 5.04061 10.583 5.11654 10.7056 5.23918C10.8283 5.36177 10.9042 5.47849 10.9678 5.64208C11.0157 5.76554 11.0728 5.95108 11.0884 6.29272C11.1053 6.66222 11.1089 6.77303 11.1089 7.70864C11.1089 8.64424 11.1053 8.75505 11.0884 9.1245C11.0728 9.46613 11.0158 9.65168 10.9678 9.77514C10.9042 9.93867 10.8283 10.0554 10.7056 10.178C10.5831 10.3007 10.4663 10.3766 10.3027 10.4402C10.1793 10.4881 9.99373 10.5452 9.6521 10.5608C9.28265 10.5777 9.17184 10.5813 8.23624 10.5813C7.30058 10.5813 7.18976 10.5777 6.82032 10.5608C6.47868 10.5452 6.29314 10.4882 6.16968 10.4402C6.00615 10.3766 5.88942 10.3007 5.76678 10.178C5.6442 10.0555 5.56821 9.93873 5.50464 9.77514C5.45668 9.65168 5.39958 9.46613 5.38398 9.1245C5.36711 8.755 5.36356 8.64419 5.36356 7.70864C5.36356 6.77303 5.36711 6.66222 5.38398 6.29272C5.39958 5.95108 5.45663 5.76554 5.50464 5.64208C5.56821 5.47854 5.64414 5.36182 5.76678 5.23918C5.88937 5.11654 6.00609 5.04061 6.16968 4.97704C6.29314 4.92908 6.47868 4.87198 6.82032 4.85638C7.18982 4.83951 7.30063 4.83596 8.23624 4.83596ZM8.23624 4.20459C7.28464 4.20459 7.16529 4.20864 6.79157 4.22567C6.41862 4.2427 6.16388 4.30193 5.94105 4.38855C5.71061 4.47806 5.51521 4.59791 5.32041 4.7927C5.12562 4.9875 5.00577 5.1829 4.91626 5.41334C4.82964 5.63622 4.77041 5.89091 4.75338 6.26386C4.73635 6.63758 4.7323 6.75693 4.7323 7.70853C4.7323 8.66012 4.73635 8.77947 4.75338 9.15319C4.77041 9.52614 4.82964 9.78083 4.91626 10.0037C5.00577 10.2342 5.12562 10.4296 5.32041 10.6244C5.51521 10.8191 5.71061 10.9389 5.94105 11.0285C6.16393 11.1151 6.41862 11.1744 6.79157 11.1914C7.16529 11.2084 7.28464 11.2125 8.23624 11.2125C9.18783 11.2125 9.30718 11.2084 9.6809 11.1914C10.0538 11.1744 10.3085 11.1151 10.5314 11.0285C10.7619 10.9389 10.9573 10.8191 11.1521 10.6244C11.3469 10.4296 11.4666 10.2342 11.5562 10.0037C11.6428 9.78083 11.7021 9.52614 11.7191 9.15319C11.7361 8.77947 11.7402 8.66012 11.7402 7.70853C11.7402 6.75693 11.7361 6.63758 11.7191 6.26386C11.7021 5.89091 11.6428 5.63622 11.5562 5.41334C11.4666 5.1829 11.3469 4.9875 11.1521 4.7927C10.9573 4.59791 10.7619 4.47812 10.5314 4.38855C10.3085 4.30193 10.0538 4.2427 9.6809 4.22567C9.30718 4.20864 9.18783 4.20459 8.23624 4.20459Z" fill="white"/>
</svg>
