<svg width="16" height="16" viewBox="0 0 16 16" fill="none" xmlns="http://www.w3.org/2000/svg">
<circle r="7.20866" transform="matrix(-1 0 0 1 8.29134 7.70866)" stroke="white"/>
<path fill-rule="evenodd" clip-rule="evenodd" d="M6.26398 11.2125V6.57788H4.83155V11.2125H6.26398ZM6.26398 4.93512C6.25545 4.52037 5.97903 4.20459 5.52999 4.20459C5.08083 4.20459 4.78735 4.52037 4.78735 4.93512C4.78735 5.34086 5.0723 5.66578 5.51281 5.66578H5.52134C5.97903 5.66578 6.26398 5.34086 6.26398 4.93512ZM8.60092 11.2125V8.5719C8.60092 8.43058 8.61113 8.28926 8.65269 8.18852C8.7663 7.90602 9.02487 7.61359 9.45904 7.61359C10.0278 7.61359 10.3845 7.93639 10.3845 8.5719V11.2125H11.8266V8.50124C11.8266 7.04888 11.0513 6.37306 10.0172 6.37306C9.16927 6.37306 8.79708 6.84711 8.59042 7.16977L8.60078 6.54991H7.16117C7.18188 6.99359 7.16117 11.2125 7.16117 11.2125H8.60092Z" fill="white"/>
</svg>
