<svg width="16" height="16" viewBox="0 0 16 16" fill="none" xmlns="http://www.w3.org/2000/svg">
<circle r="7.20866" transform="matrix(-1 0 0 1 7.7087 7.70866)" stroke="white"/>
<path d="M9.4296 4.20476C8.47355 4.22898 7.70661 5.01134 7.70661 5.97319C7.70661 6.11166 7.72147 6.24702 7.75176 6.37673C6.28103 6.30286 4.9771 5.59855 4.10429 4.52813C3.95197 4.7893 3.86441 5.09353 3.86441 5.41807C3.86441 6.03179 4.17728 6.57289 4.65212 6.89008C4.36218 6.8808 4.0889 6.80095 3.85026 6.66844C3.85012 6.67579 3.85026 6.68382 3.85026 6.69134C3.85026 7.54838 4.46042 8.26262 5.27003 8.42542C5.12155 8.46568 4.96516 8.4874 4.80373 8.4874C4.68958 8.4874 4.57889 8.47656 4.47086 8.45573C4.69619 9.15855 5.34887 9.67036 6.1231 9.68454C5.51747 10.1591 4.75561 10.4418 3.9264 10.4418C3.7837 10.4418 3.6424 10.434 3.50391 10.4175C4.28724 10.9197 5.21687 11.2125 6.21609 11.2125C9.47112 11.2125 11.251 8.51662 11.251 6.17867C11.251 6.102 11.2496 6.02491 11.2463 5.94894C11.5919 5.70002 11.8919 5.38822 12.129 5.0334C11.8119 5.17431 11.4709 5.26977 11.1128 5.3123C11.4784 5.09349 11.7589 4.7469 11.8911 4.33343C11.5492 4.53632 11.1704 4.68378 10.7672 4.76325C10.4445 4.41945 9.9844 4.20476 9.47542 4.20476C9.46016 4.20476 9.44478 4.20438 9.4296 4.20476Z" fill="white"/>
</svg>
