<svg width="49" height="50" viewBox="0 0 49 50" fill="none" xmlns="http://www.w3.org/2000/svg">
<path d="M47.3448 17.5517H1" stroke="white" stroke-width="2" stroke-miterlimit="10"/>
<path d="M21.6897 44.8621H5.13793C4.04048 44.8621 2.98798 44.4261 2.21197 43.6501C1.43596 42.8741 1 41.8216 1 40.7241V10.1034C1 9.006 1.43596 7.9535 2.21197 7.17749C2.98798 6.40147 4.04048 5.96552 5.13793 5.96552H43.2069C44.3043 5.96552 45.3568 6.40147 46.1329 7.17749C46.9089 7.9535 47.3448 9.006 47.3448 10.1034V26.6552" stroke="white" stroke-width="2" stroke-miterlimit="10" stroke-linecap="square"/>
<path d="M11.7586 1V10.931" stroke="white" stroke-width="2" stroke-miterlimit="10" stroke-linecap="square"/>
<path d="M36.5862 1V10.931" stroke="white" stroke-width="2" stroke-miterlimit="10" stroke-linecap="square"/>
<path d="M36.5862 49C42.071 49 46.5172 44.5537 46.5172 39.069C46.5172 33.5842 42.071 29.1379 36.5862 29.1379C31.1014 29.1379 26.6552 33.5842 26.6552 39.069C26.6552 44.5537 31.1014 49 36.5862 49Z" stroke="white" stroke-width="2" stroke-miterlimit="10" stroke-linecap="square"/>
<path d="M32.4483 39.8966L34.931 42.3793L40.7241 36.5862" stroke="white" stroke-width="2" stroke-miterlimit="10" stroke-linecap="square"/>
</svg>
