<svg width="49" height="50" viewBox="0 0 49 50" fill="none" xmlns="http://www.w3.org/2000/svg">
<path d="M7.4001 49C10.0511 49 12.2001 46.851 12.2001 44.2C12.2001 41.549 10.0511 39.4 7.4001 39.4C4.74913 39.4 2.6001 41.549 2.6001 44.2C2.6001 46.851 4.74913 49 7.4001 49Z" stroke="white" stroke-width="2" stroke-miterlimit="10" stroke-linecap="square"/>
<path d="M42.6 49C45.251 49 47.4 46.851 47.4 44.2C47.4 41.549 45.251 39.4 42.6 39.4C39.9491 39.4 37.8 41.549 37.8 44.2C37.8 46.851 39.9491 49 42.6 49Z" stroke="white" stroke-width="2" stroke-miterlimit="10" stroke-linecap="square"/>
<path d="M1 1L6.6 7.4V26.6L2.6 33.8H49" stroke="white" stroke-width="2" stroke-miterlimit="10"/>
<path d="M6.6001 7.39999H44.2001L37.8001 26.6H6.6001" stroke="white" stroke-width="2" stroke-miterlimit="10" stroke-linecap="square"/>
</svg>
