<svg width="26" height="26" viewBox="0 0 26 26" fill="none" xmlns="http://www.w3.org/2000/svg">
<circle r="11.9899" transform="matrix(-1 0 0 1 13.0639 12.7002)" stroke="#0024B1"/>
<path fill-rule="evenodd" clip-rule="evenodd" d="M9.89204 18.1645V10.937H7.66816V18.1645H9.89204ZM9.89204 8.37515C9.8788 7.72836 9.44966 7.2359 8.75251 7.2359C8.05518 7.2359 7.59955 7.72836 7.59955 8.37515C7.59955 9.00789 8.04193 9.51459 8.72584 9.51459H8.73908C9.44966 9.51459 9.89204 9.00789 9.89204 8.37515ZM13.5202 18.1645V14.0466C13.5202 13.8262 13.536 13.6059 13.6006 13.4488C13.777 13.0082 14.1784 12.5522 14.8525 12.5522C15.7355 12.5522 16.2893 13.0556 16.2893 14.0466V18.1645H18.5282V13.9364C18.5282 11.6715 17.3245 10.6176 15.719 10.6176C14.4026 10.6176 13.8247 11.3569 13.5039 11.86L13.52 10.8934H11.285C11.3171 11.5853 11.285 18.1645 11.285 18.1645H13.5202Z" fill="#0024B1"/>
</svg>
