<svg width="50" height="50" viewBox="0 0 50 50" fill="none" xmlns="http://www.w3.org/2000/svg">
<circle r="24.5" transform="matrix(-1 0 0 1 25 25)" stroke="#0024B1"/>
<path fill-rule="evenodd" clip-rule="evenodd" d="M18.6515 35.9375V21.4707H14.2001V35.9375H18.6515ZM18.6515 16.3428C18.6249 15.0482 17.766 14.0625 16.3705 14.0625C14.9747 14.0625 14.0627 15.0482 14.0627 16.3428C14.0627 17.6094 14.9482 18.6236 16.3172 18.6236H16.3437C17.766 18.6236 18.6515 17.6094 18.6515 16.3428ZM25.9136 35.9375V27.695C25.9136 27.2539 25.9454 26.8128 26.0745 26.4983C26.4276 25.6165 27.2311 24.7037 28.5803 24.7037C30.3478 24.7037 31.4563 25.7113 31.4563 27.695V35.9375H35.9377V27.4744C35.9377 22.9409 33.5285 20.8314 30.3148 20.8314C27.6798 20.8314 26.5232 22.3111 25.881 23.3183L25.9132 21.3834H21.4395C21.5039 22.7683 21.4395 35.9375 21.4395 35.9375H25.9136Z" fill="#0024B1"/>
</svg>
