<svg width="50" height="50" viewBox="0 0 50 50" fill="none" xmlns="http://www.w3.org/2000/svg">
<path d="M22 16C21.8674 16 21.7402 16.0527 21.6464 16.1464C21.5527 16.2402 21.5 16.3674 21.5 16.5V36.5C21.5 36.6326 21.5527 36.7598 21.6464 36.8536C21.7402 36.9473 21.8674 37 22 37C22.1326 37 22.2598 36.9473 22.3536 36.8536C22.4473 36.7598 22.5 36.6326 22.5 36.5V16.5C22.5 16.3674 22.4473 16.2402 22.3536 16.1464C22.2598 16.0527 22.1326 16 22 16Z" fill="#0024B1"/>
<path d="M28.0001 16C27.8675 16 27.7403 16.0527 27.6466 16.1464C27.5528 16.2402 27.5001 16.3674 27.5001 16.5V36.5C27.5001 36.6326 27.5528 36.7598 27.6466 36.8536C27.7403 36.9473 27.8675 37 28.0001 37C28.1327 37 28.2599 36.9473 28.3537 36.8536C28.4474 36.7598 28.5001 36.6326 28.5001 36.5V16.5C28.5001 16.3674 28.4474 16.2402 28.3537 16.1464C28.2599 16.0527 28.1327 16 28.0001 16Z" fill="#0024B1"/>
<path d="M25 13C24.8674 13 24.7402 13.0527 24.6464 13.1464C24.5527 13.2402 24.5 13.3674 24.5 13.5V39.5C24.5 39.6326 24.5527 39.7598 24.6464 39.8536C24.7402 39.9473 24.8674 40 25 40C25.1326 40 25.2598 39.9473 25.3536 39.8536C25.4473 39.7598 25.5 39.6326 25.5 39.5V13.5C25.5 13.3674 25.4473 13.2402 25.3536 13.1464C25.2598 13.0527 25.1326 13 25 13Z" fill="#0024B1"/>
<path d="M13 24C12.8674 24 12.7402 24.0527 12.6464 24.1464C12.5527 24.2402 12.5 24.3674 12.5 24.5V28.5C12.5 28.6326 12.5527 28.7598 12.6464 28.8536C12.7402 28.9473 12.8674 29 13 29C13.1326 29 13.2598 28.9473 13.3536 28.8536C13.4473 28.7598 13.5 28.6326 13.5 28.5V24.5C13.5 24.3674 13.4473 24.2402 13.3536 24.1464C13.2598 24.0527 13.1326 24 13 24Z" fill="#0024B1"/>
<path d="M19.0001 20C18.8675 20 18.7403 20.0527 18.6466 20.1464C18.5528 20.2402 18.5001 20.3674 18.5001 20.5V32.5C18.5001 32.6326 18.5528 32.7598 18.6466 32.8536C18.7403 32.9473 18.8675 33 19.0001 33C19.1327 33 19.2599 32.9473 19.3537 32.8536C19.4474 32.7598 19.5001 32.6326 19.5001 32.5V20.5C19.5001 20.3674 19.4474 20.2402 19.3537 20.1464C19.2599 20.0527 19.1327 20 19.0001 20Z" fill="#0024B1"/>
<path d="M31 20C30.8674 20 30.7402 20.0527 30.6464 20.1464C30.5527 20.2402 30.5 20.3674 30.5 20.5V32.5C30.5 32.6326 30.5527 32.7598 30.6464 32.8536C30.7402 32.9473 30.8674 33 31 33C31.1326 33 31.2598 32.9473 31.3536 32.8536C31.4473 32.7598 31.5 32.6326 31.5 32.5V20.5C31.5 20.3674 31.4473 20.2402 31.3536 20.1464C31.2598 20.0527 31.1326 20 31 20Z" fill="#0024B1"/>
<path d="M16 22C15.8674 22 15.7402 22.0527 15.6464 22.1464C15.5527 22.2402 15.5 22.3674 15.5 22.5V30.5C15.5 30.6326 15.5527 30.7598 15.6464 30.8536C15.7402 30.9473 15.8674 31 16 31C16.1326 31 16.2598 30.9473 16.3536 30.8536C16.4473 30.7598 16.5 30.6326 16.5 30.5V22.5C16.5 22.3674 16.4473 22.2402 16.3536 22.1464C16.2598 22.0527 16.1326 22 16 22Z" fill="#0024B1"/>
<path d="M34 22C33.8674 22 33.7402 22.0527 33.6464 22.1464C33.5527 22.2402 33.5 22.3674 33.5 22.5V30.5C33.5 30.6326 33.5527 30.7598 33.6464 30.8536C33.7402 30.9473 33.8674 31 34 31C34.1326 31 34.2598 30.9473 34.3536 30.8536C34.4473 30.7598 34.5 30.6326 34.5 30.5V22.5C34.5 22.3674 34.4473 22.2402 34.3536 22.1464C34.2598 22.0527 34.1326 22 34 22Z" fill="#0024B1"/>
<path d="M39.9999 25C39.8673 25 39.7401 25.0527 39.6463 25.1464C39.5526 25.2402 39.4999 25.3674 39.4999 25.5V27.5C39.4999 27.6326 39.5526 27.7598 39.6463 27.8536C39.7401 27.9473 39.8673 28 39.9999 28C40.1325 28 40.2597 27.9473 40.3534 27.8536C40.4472 27.7598 40.4999 27.6326 40.4999 27.5V25.5C40.4999 25.3674 40.4472 25.2402 40.3534 25.1464C40.2597 25.0527 40.1325 25 39.9999 25Z" fill="#0024B1"/>
<path d="M10.2222 25C10.0896 25 9.96238 25.0527 9.86861 25.1464C9.77485 25.2402 9.72217 25.3674 9.72217 25.5V27.5C9.72217 27.6326 9.77485 27.7598 9.86861 27.8536C9.96238 27.9473 10.0896 28 10.2222 28C10.3548 28 10.482 27.9473 10.5757 27.8536C10.6695 27.7598 10.7222 27.6326 10.7222 27.5V25.5C10.7222 25.3674 10.6695 25.2402 10.5757 25.1464C10.482 25.0527 10.3548 25 10.2222 25Z" fill="#0024B1"/>
<path d="M37 24C36.8674 24 36.7402 24.0527 36.6464 24.1464C36.5527 24.2402 36.5 24.3674 36.5 24.5V28.5C36.5 28.6326 36.5527 28.7598 36.6464 28.8536C36.7402 28.9473 36.8674 29 37 29C37.1326 29 37.2598 28.9473 37.3536 28.8536C37.4473 28.7598 37.5 28.6326 37.5 28.5V24.5C37.5 24.3674 37.4473 24.2402 37.3536 24.1464C37.2598 24.0527 37.1326 24 37 24Z" fill="#0024B1"/>
<circle cx="25" cy="25" r="24.5" stroke="#0024B1"/>
</svg>
