<svg width="50" height="50" viewBox="0 0 50 50" fill="none" xmlns="http://www.w3.org/2000/svg">
<circle r="24.5" transform="matrix(-1 0 0 1 25 25)" stroke="#0024B1"/>
<path d="M30.5812 13.6369C27.4806 13.7155 24.9933 16.2527 24.9933 19.3721C24.9933 19.8212 25.0415 20.2602 25.1397 20.6808C20.37 20.4413 16.1412 18.1571 13.3106 14.6856C12.8166 15.5326 12.5327 16.5193 12.5327 17.5718C12.5327 19.5622 13.5474 21.317 15.0873 22.3457C14.147 22.3156 13.2607 22.0566 12.4868 21.6269C12.4863 21.6507 12.4868 21.6767 12.4868 21.7012C12.4868 24.4806 14.4656 26.797 17.0912 27.3249C16.6097 27.4555 16.1025 27.5259 15.579 27.5259C15.2088 27.5259 14.8498 27.4908 14.4995 27.4233C15.2302 29.7026 17.3469 31.3624 19.8578 31.4084C17.8937 32.9474 15.4229 33.8642 12.7337 33.8642C12.2709 33.8642 11.8127 33.8389 11.3635 33.7855C13.904 35.4143 16.9188 36.3636 20.1594 36.3636C30.7158 36.3636 36.4881 27.6207 36.4881 20.0385C36.4881 19.7898 36.4836 19.5398 36.4728 19.2935C37.5937 18.4862 38.5667 17.475 39.3356 16.3243C38.3072 16.7813 37.2013 17.0908 36.0401 17.2288C37.2257 16.5192 38.1354 15.3951 38.5641 14.0542C37.4552 14.7122 36.2267 15.1904 34.919 15.4481C33.8725 14.3332 32.3804 13.6369 30.7298 13.6369C30.6803 13.6369 30.6304 13.6357 30.5812 13.6369Z" fill="#0024B1"/>
</svg>
