<svg width="50" height="50" viewBox="0 0 50 50" fill="none" xmlns="http://www.w3.org/2000/svg">
<circle r="24.5" transform="matrix(-1 0 0 1 25 25)" stroke="#0024B1"/>
<path d="M36.1364 21.8612C36.1364 21.8612 35.9147 20.1895 35.2334 19.4535C34.3688 18.4887 33.4005 18.483 32.9564 18.4283C29.7758 18.1818 25.0051 18.1818 25.0051 18.1818H24.9944C24.9944 18.1818 20.2238 18.1818 17.0438 18.4283C16.5998 18.483 15.6321 18.4887 14.7668 19.4535C14.0862 20.1895 13.8638 21.8612 13.8638 21.8612C13.8638 21.8612 13.6365 23.8227 13.6365 25.7843V27.6229C13.6365 29.5859 13.8638 31.5467 13.8638 31.5467C13.8638 31.5467 14.0855 33.2177 14.7668 33.9523C15.6321 34.9171 16.7667 34.888 17.2726 34.9889C19.0906 35.175 25.0001 35.2325 25.0001 35.2325C25.0001 35.2325 29.7758 35.224 32.9564 34.9803C33.4005 34.9235 34.3688 34.9178 35.2334 33.953C35.914 33.2184 36.1364 31.5474 36.1364 31.5474C36.1364 31.5474 36.3637 29.5859 36.3637 27.6236V25.785C36.3637 23.8227 36.1364 21.8612 36.1364 21.8612Z" fill="#0024B1"/>
<path d="M22.1621 22.4445V30.9698L29.2666 26.7072L22.1621 22.4445Z" fill="white"/>
</svg>
